<svg width="88" height="17" viewBox="0 0 88 17" fill="none" xmlns="http://www.w3.org/2000/svg">
<path d="M12.0902 11.5142L7.80563 13.9385L8.9719 9.41411L5.1582 6.38885L10.1622 6.01745L12.0902 1.72266L14.0182 6.01745L19.0229 6.38885L15.21 9.41411L16.3762 13.9385L12.0902 11.5142Z" fill="#F9A755"/>
<path d="M28.6508 11.5142L24.3662 13.9385L25.5324 9.41411L21.7188 6.38885L26.7228 6.01745L28.6508 1.72266L30.5787 6.01745L35.5835 6.38885L31.7705 9.41411L32.9368 13.9385L28.6508 11.5142Z" fill="#F9A755"/>
<path d="M45.2172 11.5142L40.9326 13.9385L42.0989 9.41411L38.2852 6.38885L43.2892 6.01745L45.2172 1.72266L47.1452 6.01745L52.1499 6.38885L48.337 9.41411L49.5032 13.9385L45.2172 11.5142Z" fill="#F9A755"/>
<path d="M61.7855 11.5142L57.501 13.9385L58.6672 9.41411L54.8535 6.38885L59.8575 6.01745L61.7855 1.72266L63.7135 6.01745L68.7183 6.38885L64.9053 9.41411L66.0716 13.9385L61.7855 11.5142Z" fill="#F9A755"/>
<path d="M77.932 11.7916L73.6474 14.2158L74.8137 9.69145L71 6.66619L76.004 6.29479L77.932 2L79.86 6.29479L84.8648 6.66619L81.0518 9.69145L82.2181 14.2158L77.932 11.7916Z" fill="#F9A755"/>
</svg>
